# xmcd
#
# Track frame offsets:
#	150
#	14680
#	29839
#	43648
#	65276
#	88552
#	104459
#	120615
#	139616
#	157910
#	176597
#	189530
#	204058
#	224381
#	241015
#	259371
#	280586
#	299171
#
# Disc length: 4183 seconds
#
# Revision: 1
# Processed by: cddbd v1.4PL0 Copyright (c) Steve Scherf et al.
# Submitted via: audiograbber 1.82.01
#
DISCID=08105512
DTITLE=John Denver - Greatest Country Songs
DYEAR=1998
DGENRE=Country
TTITLE0=John Denver - Take Me Home, Country Roads
TTITLE1=John Denver - Sunshine On My Shoulders
TTITLE2=John Denver - Annie's Song
TTITLE3=John Denver - Back Home Again
TTITLE4=John Denver - Sweet Surrender (Live)
TTITLE5=John Denver - Thank God I'm a Country Boy (Live)
TTITLE6=John Denver - I'm Sorry
TTITLE7=John Denver - Fly Away
TTITLE8=John Denver - Looking For Space
TTITLE9=John Denver - Like A Sad Song
TTITLE10=John Denver - Baby You Look Good To Me Tonight
TTITLE11=John Denver - How Can I Leave You Again
TTITLE12=John Denver - What's On Your Mind
TTITLE13=John Denver - Autograph
TTITLE14=John Denver - Some Days Are Diamonds (Some Days Are Stone)
TTITLE15=John Denver - The Cowboy and the Lady
TTITLE16=John Denver and Emmy Lou Harris - Wild Montana Skies
TTITLE17=John Denver - Dreamland Express
EXTD=
EXTT0=
EXTT1=
EXTT2=
EXTT3=
EXTT4=
EXTT5=
EXTT6=
EXTT7=
EXTT8=
EXTT9=
EXTT10=
EXTT11=
EXTT12=
EXTT13=
EXTT14=
EXTT15=
EXTT16=
EXTT17=
PLAYORDER=
